<svg width="25" height="29" viewBox="0 0 25 29" fill="none" xmlns="http://www.w3.org/2000/svg">
<path d="M15.1199 12.0432C14.3061 12.0432 13.6636 12.7524 13.6636 13.6354C13.6636 14.5184 14.3203 15.2277 15.1199 15.2277C15.9337 15.2277 16.5762 14.5184 16.5762 13.6354C16.5762 12.7524 15.9194 12.0432 15.1199 12.0432ZM9.90858 12.0432C9.09476 12.0432 8.45227 12.7524 8.45227 13.6354C8.45227 14.5184 9.10904 15.2277 9.90858 15.2277C10.7224 15.2277 11.3649 14.5184 11.3649 13.6354C11.3792 12.7524 10.7224 12.0432 9.90858 12.0432Z" fill="#F3F3F3"/>
<path d="M22.0588 0H2.9269C1.31353 0 0 1.3317 0 2.96737V22.3638C0 23.9995 1.31353 25.3312 2.9269 25.3312H19.1176L18.3609 22.6823L20.1885 24.3903L21.916 25.997L25 28.7038V2.96737C24.9857 1.3317 23.6722 0 22.0588 0ZM16.5477 18.7451C16.5477 18.7451 16.0337 18.1226 15.6054 17.5871C17.4757 17.0515 18.1896 15.879 18.1896 15.879C17.6042 16.2698 17.0474 16.5449 16.5477 16.733C15.8338 17.037 15.1485 17.2252 14.4774 17.3555C13.1068 17.616 11.8504 17.5436 10.7796 17.341C9.96573 17.1818 9.26613 16.9646 8.68075 16.7186C8.35237 16.5883 7.99543 16.4291 7.63849 16.2264C7.59566 16.1975 7.55283 16.183 7.50999 16.1541C7.48144 16.1396 7.46716 16.1251 7.45288 16.1251C7.19589 15.9803 7.05311 15.879 7.05311 15.879C7.05311 15.879 7.73843 17.0225 9.55168 17.5726C9.12336 18.1226 8.59509 18.7595 8.59509 18.7595C5.43975 18.6582 4.24043 16.5738 4.24043 16.5738C4.24043 11.9563 6.2964 8.2073 6.2964 8.2073C8.35237 6.65848 10.2941 6.7019 10.2941 6.7019L10.4369 6.8756C7.86693 7.61383 6.69617 8.75735 6.69617 8.75735C6.69617 8.75735 7.01028 8.58365 7.53855 8.35205C9.06625 7.67173 10.2798 7.49803 10.7796 7.44013C10.8652 7.42565 10.9366 7.41118 11.0223 7.41118C11.8932 7.29538 12.8784 7.26643 13.9063 7.38223C15.2627 7.54145 16.719 7.94675 18.2039 8.75735C18.2039 8.75735 17.076 7.67173 14.6488 6.9335L14.8487 6.7019C14.8487 6.7019 16.8047 6.65848 18.8464 8.2073C18.8464 8.2073 20.9023 11.9563 20.9023 16.5738C20.9023 16.5593 19.703 18.6437 16.5477 18.7451Z" fill="#F3F3F3"/>
</svg>
