<svg width="58" height="33" viewBox="0 0 58 33" fill="none" xmlns="http://www.w3.org/2000/svg">
<path fill-rule="evenodd" clip-rule="evenodd" d="M18.261 25.0799C13.2471 25.7845 8.61138 22.2912 7.90673 17.2774C7.20208 12.2635 10.6954 7.62775 15.7092 6.9231C20.7231 6.21845 25.3589 9.71175 26.0635 14.7256L31.0148 14.0297C29.9259 6.28134 22.7618 0.882796 15.0134 1.97176C7.26496 3.06073 1.86642 10.2248 2.95539 17.9732C4.04436 25.7216 11.2085 31.1202 18.9569 30.0312C18.9603 30.0307 18.9638 30.0302 18.9673 30.0297L18.9569 30.0312L18.261 25.0799Z" fill="#6C6C6C"/>
<path fill-rule="evenodd" clip-rule="evenodd" d="M31.9365 17.2774C32.6412 22.2912 37.2769 25.7845 42.2908 25.0799C47.3046 24.3752 50.7979 19.7394 50.0933 14.7256C49.3886 9.71173 44.7529 6.21844 39.739 6.92309L39.0432 1.97175L39.0304 1.97354C39.0347 1.97294 39.0389 1.97234 39.0431 1.97175C46.7916 0.88278 53.9557 6.28132 55.0446 14.0297C56.1336 21.7781 50.7351 28.9422 42.9866 30.0312C35.2382 31.1202 28.0741 25.7216 26.9852 17.9732C26.9844 17.9677 26.9836 17.9622 26.9829 17.9568L26.9852 17.9732L31.9365 17.2774Z" fill="#6C6C6C"/>
</svg>
