<svg width="58" height="33" viewBox="0 0 58 33" fill="none" xmlns="http://www.w3.org/2000/svg">
<path fill-rule="evenodd" clip-rule="evenodd" d="M18.261 26.0769C13.2471 26.7816 8.61138 23.2883 7.90673 18.2744C7.20208 13.2606 10.6954 8.62479 15.7092 7.92014C20.7231 7.21549 25.3589 10.7088 26.0635 15.7226L31.0148 15.0268C29.9259 7.27838 22.7618 1.87984 15.0134 2.9688C7.26496 4.05777 1.86642 11.2219 2.95539 18.9703C4.04436 26.7187 11.2085 32.1172 18.9569 31.0283C18.9603 31.0278 18.9638 31.0273 18.9673 31.0268L18.9569 31.0282L18.261 26.0769Z" fill="#F3F3F3"/>
<path fill-rule="evenodd" clip-rule="evenodd" d="M31.9365 18.2744C32.6412 23.2883 37.2769 26.7816 42.2908 26.0769C47.3046 25.3723 50.7979 20.7365 50.0933 15.7226C49.3886 10.7088 44.7529 7.21548 39.739 7.92013L39.0432 2.9688L39.0304 2.97059C39.0347 2.96999 39.0389 2.96939 39.0431 2.96879C46.7916 1.87983 53.9557 7.27837 55.0446 15.0268C56.1336 22.7752 50.7351 29.9393 42.9866 31.0282C35.2382 32.1172 28.0741 26.7187 26.9852 18.9703C26.9844 18.9648 26.9836 18.9593 26.9829 18.9538L26.9852 18.9703L31.9365 18.2744Z" fill="#F3F3F3"/>
</svg>
